<svg width="31" height="30" viewBox="0 0 31 30" xmlns="http://www.w3.org/2000/svg" fill='#5865f2' >
  <g>
    <path d="M26.002 6.953c-2-.915-4.123-1.581-6.34-1.953-.279.48-.589 1.131-.806 1.643a24.233 24.233 0 00-7.022 0A20.16 20.16 0 0011.028 5a24.937 24.937 0 00-6.341 1.953C.673 12.873-.413 18.655.13 24.358c2.666 1.938 5.239 3.116 7.767 3.89a18.896 18.896 0 001.658-2.68 16.264 16.264 0 01-2.62-1.256c.218-.155.435-.325.636-.496 5.053 2.31 10.526 2.31 15.517 0 .217.17.418.341.635.496-.837.496-1.705.915-2.62 1.255.481.946 1.04 1.845 1.66 2.682a25.694 25.694 0 007.766-3.89c.666-6.603-1.056-12.338-4.527-17.406zM10.252 20.84c-1.518 0-2.758-1.38-2.758-3.069s1.209-3.069 2.759-3.069c1.534 0 2.79 1.38 2.758 3.07 0 1.689-1.224 3.068-2.758 3.068zm10.185 0c-1.519 0-2.76-1.38-2.76-3.069s1.21-3.069 2.76-3.069c1.535 0 2.79 1.38 2.76 3.07 0 1.689-1.21 3.068-2.76 3.068z"/>
  </g>
</svg>